<?xml version="1.0" encoding="UTF-8" standalone="no"?>
<!DOCTYPE svg PUBLIC "-//W3C//DTD SVG 1.1//EN" "http://www.w3.org/Graphics/SVG/1.1/DTD/svg11.dtd">
<svg width="100%" height="100%" viewBox="0 0 653 543" version="1.1" xmlns="http://www.w3.org/2000/svg" xmlns:xlink="http://www.w3.org/1999/xlink" xml:space="preserve" xmlns:serif="http://www.serif.com/" style="fill-rule:evenodd;clip-rule:evenodd;stroke-linejoin:round;stroke-miterlimit:2;">
    <g transform="matrix(1,0,0,1,-176.196659,-7.977612)">
        <g transform="matrix(1,0,0,1,174,5)">
            <path d="M63.495,112.035C69.754,111.633 70.472,111.854 75.393,104.429C78.02,100.465 94.403,75.744 114.867,59.979C143.998,37.538 166.425,31.605 176.396,28.204C184.617,25.4 186.256,3.842 210.489,3.136C231.487,2.525 234.388,22.255 245.475,23.698C249.347,24.201 274.178,27.433 292.692,36.078C314.752,46.379 319.959,48.909 315.101,53.054C300.168,65.794 297.878,70.608 289.662,66.205C286.047,64.268 257.531,48.987 240.4,52.011C234.798,53 228.239,66.786 212.506,66.886C197.481,66.981 193.431,60.947 188.138,56.997C180.079,50.983 149.388,70.426 148.254,71.078C104.169,96.414 88.5,140.257 91.277,173.52C100.776,287.292 220.265,275.183 292.356,310.799C347.879,338.229 337.338,391.014 321.106,417.252C315.821,425.794 313.329,419.275 306.252,407.646C297.063,392.545 306.94,391.382 306.722,374.496C306.254,338.261 277.919,331.824 202.437,311.718C77.629,278.471 70.831,221.633 64.735,182.431C64.585,181.471 62.351,179.144 61.208,183.414C44.027,247.608 50.682,248.498 52.587,250.415C69.961,267.9 62.116,278.617 64.783,285.382C66.428,289.557 89.539,307.157 93.231,309.87C103.729,317.582 104.519,317.212 112.607,314.87C127.773,310.479 145.277,317.669 151.012,333.675C157.84,352.73 145.607,366.586 144.915,367.754C144.191,368.976 141.561,373.414 147.957,385.252C184.028,452.021 250.349,423.793 255.298,427.778C257.25,429.349 266.433,445.97 267.33,447.594C271.515,455.168 240.617,460.862 215.478,458.764C141.633,452.599 124.208,400.177 118.048,384.7C110.133,364.815 89.995,390.733 91.291,396.543C93.736,407.496 92.596,407.558 90.577,418.515C88.779,428.271 129.899,476.384 181.499,491.503C190.752,494.215 195.16,478.888 216.581,482.113C224.889,483.363 233.515,492.064 234.714,493.274C244.518,503.163 291.168,484.941 302.336,479.19C312.22,474.1 297.679,472.799 275.202,436.683C250.934,397.689 246.778,342.551 247.524,340.51C249.087,336.232 271.605,346.342 273.214,347.82C277.514,351.772 277.307,382.458 296.92,418.27C308.5,439.415 326.184,455.462 328.383,456.675C336.056,460.907 375.713,417.028 369.507,361.499C358.812,265.805 259.774,267.4 182.367,236.84C102.722,205.396 131.116,141.526 141.95,127.859C186.269,71.948 260.456,93.629 268.363,98.736C271.088,100.497 269.788,101.562 261.042,117.238C255.919,126.421 253.699,124.057 247.516,122.442C182.471,105.461 159.678,149.538 157.945,156.608C143.68,214.824 218.212,212.872 305.676,246.024C396.436,280.425 414.559,369.941 384.773,431.627C341.21,521.843 252.633,521.26 242.401,525.243C236.582,527.508 228.492,546.524 208.49,544.641C187.085,542.625 183.315,526.237 182.059,523.713C176.695,512.937 134.299,515.384 86.554,461.453C69.825,442.557 72.112,437.666 60.499,437.864C44.586,438.135 20.32,415.135 37.102,389.243C43.884,378.78 39.293,377.863 30.942,346.387C22.015,312.741 28.03,309.677 19.758,304.111C-7.695,285.638 0.908,260.572 19.229,247.137C27.171,241.312 19.373,236.605 35.304,180.442C38.485,169.228 40.438,168.582 34.9,158.294C25.449,140.737 33.154,113.869 63.495,112.035ZM88.036,336.496C87.152,345.606 86.64,345.611 88.677,354.458C90.015,360.266 74.028,375.722 68.494,373.513C55.602,368.367 41.784,302.365 48.493,302.258C50.476,302.226 87.277,331.395 87.824,334.414C87.948,335.101 87.912,335.81 88.036,336.496ZM197.109,32.486C199.261,15.54 220.086,16.003 224.042,28.656C230.013,47.754 199.171,57.585 197.109,32.486ZM209.473,526.88C193.366,524.522 191.955,504.044 205.436,499.315C225.066,492.43 232.108,525.3 209.473,526.88ZM74.06,143.485C71.227,169.26 38.115,155.103 48.29,136.376C52.581,128.477 71.77,123.156 74.06,143.485ZM45.059,274.473C41.598,298.906 10.54,286.432 18.882,267.673C23.204,257.953 44.051,254.58 45.059,274.473ZM133.059,345.473C129.598,369.906 98.54,357.432 106.882,338.673C111.204,328.953 132.051,325.58 133.059,345.473ZM74.059,405.473C70.598,429.906 39.54,417.432 47.882,398.673C52.204,388.953 73.051,385.58 74.059,405.473Z" style="fill:rgb(27,26,25);fill-opacity:1;"/>
            <path d="M415.499,51.97C396.469,53.73 345.929,67.256 309.951,114.843C271.252,166.027 275.301,209.542 273.424,218.483C272.366,223.521 249.924,213.782 247.87,212.112C244.643,209.489 251.093,178.157 255.362,164.454C293.607,41.703 399.47,26.242 411.583,23.964C421.651,22.071 421.464,21.171 425.703,15.66C444.33,-8.56 468.585,7.53 475.054,17.792C481.18,27.51 481.153,28.258 492.643,32.035C528.528,43.833 562.579,71.393 580.102,99.747C585.722,108.839 584.814,111.638 595.478,111.898C598.105,111.962 615.669,112.392 623.106,129.675C633.064,152.815 615.15,161.522 619.703,173.426C624.724,186.552 624.553,186.559 628.724,207.454C635.001,238.899 630.707,241.156 639.12,247.949C661.965,266.396 656.482,290.055 640.783,301.876C633.351,307.472 632.776,307.869 630.797,323.544C627.097,352.84 617.284,372.502 617.097,379.5C616.937,385.51 640.517,408.596 614.349,431.315C602.038,442.003 594.533,430.802 582.879,446.781C537.913,508.433 492.496,510.91 479.586,521.608C477.58,523.27 464.065,559.851 430.751,538.12C422.496,532.736 424.854,526.408 413.562,524.186C408.041,523.099 358.238,513.298 346.726,502.271C344.039,499.697 346.523,499.052 362.777,484.828C370.302,478.243 384.895,491.977 417.559,496.019C425.549,497.008 429.051,486.273 441.526,482.585C460.307,477.032 471.592,492.663 475.468,492.13C503.828,488.229 571.051,433.789 567.502,417.5C564.839,405.277 565.696,405.168 567.832,395.577C569.054,390.087 552.182,377.053 550.444,376.729C542.043,375.162 539.905,386.588 535.144,397.345C522.728,425.391 485.542,469.148 415.423,456.972C390.129,452.58 390.956,448.534 391.927,446.728C395.643,439.814 395.631,439.87 398.973,432.718C404.248,421.433 408.152,425.239 416.469,427.599C442.828,435.076 487.938,427.858 508.024,390.254C518.065,371.456 514.322,370.175 509.698,360.405C494.201,327.661 530.723,306.31 552.305,316.907C573.172,327.152 567.969,350.481 567.3,356.489C566.721,361.696 579.755,377.691 587.54,374.589C594.379,371.863 605.289,322.643 606.737,311.534C607.803,303.355 606.226,303.5 600.859,297.209C579.141,271.751 604.419,251.725 607.302,246.406C609.474,242.4 601.799,197.454 594.134,180.661C590.406,172.496 580.705,173.452 577.177,176.079C564.925,185.205 568.809,189.627 569.068,193.544C572.842,250.533 485.792,237.506 511.086,181.314C516.85,168.509 494.747,125.575 455.447,119.861C418.792,114.532 406.861,130.277 400.797,123.251C398.387,120.459 390.371,105.547 389.874,104.354C386.483,96.211 417.139,91.838 433.503,90.54C492.693,85.845 521.669,130.713 526.182,137.702C538.482,156.747 533.869,165.155 548.569,167.024C558.938,168.342 566.4,155.406 566.255,153.512C565.444,142.97 565.053,142.988 566.501,132.5C567.592,124.594 537.18,80.884 492.587,61.302C477.005,54.459 475.777,54.249 468.209,60.126C466.36,61.561 454.628,70.67 439.469,65.602C426.004,61.101 429.679,52.793 415.499,51.97ZM582.108,404.486C584.26,387.544 605.084,387.997 609.042,400.656C615.014,419.758 584.169,429.583 582.108,404.486ZM435.108,33.486C437.26,16.543 458.083,16.999 462.042,29.656C468.015,48.754 437.17,58.585 435.108,33.486ZM609.108,273.486C611.26,256.543 632.083,256.999 636.042,269.656C642.015,288.754 611.17,298.585 609.108,273.486ZM522.108,343.486C524.26,326.543 545.083,326.999 549.042,339.656C555.015,358.754 524.17,368.585 522.108,343.486ZM523.108,197.486C525.26,180.543 546.083,180.999 550.042,193.656C556.015,212.754 525.17,222.585 523.108,197.486ZM581.108,142.486C583.26,125.543 604.083,125.999 608.042,138.656C614.01,157.739 583.17,167.593 581.108,142.486ZM447.558,527.059C429.775,522.019 433.527,503.958 443.661,499.873C464.365,491.526 471.198,527.291 447.558,527.059Z" style="fill:rgb(26,26,24);fill-opacity:1;"/>
            <path d="M359.49,87.099C360.193,87.227 362.5,86.533 367.101,92.793C398.039,134.887 400.972,171.074 403.248,182.551C405.985,196.353 425.674,195.51 423.165,224.456C420.421,256.117 370.12,263.044 361.798,229.424C353.967,197.786 378.05,197.436 377.744,186.496C376.576,144.671 342.884,105.739 341.901,104.257C337.568,97.72 356.355,87.742 359.49,87.099ZM378.108,218.486C380.259,201.545 401.082,201.997 405.042,214.656C411.017,233.755 380.169,243.586 378.108,218.486Z" style="fill:rgb(26,25,24);fill-opacity:1;"/>
            <path d="M310.031,215.458C310.499,210.602 312.745,177.158 330.824,148.705C334.234,143.34 336.192,146.567 338.719,152.402C347.922,173.651 346.256,174.536 342.53,184.511C333.419,208.904 335.551,242.295 334.012,244.069C332.918,245.331 332.411,244.996 314.748,236.001C307.165,232.14 308.968,225.736 310.031,215.458Z" style="fill:rgb(25,24,23);fill-opacity:1;"/>
        </g>
    </g>
</svg>
